#!OML:ASF E:\Steps\Project 1\Capture day 1\Session 2\Subject.ASF
:FULLY-SPECIFIED
:DEGREES
944
root 9.18175 25.1273 -14.6024 -153.636 -2.60519 178.951
lowerback -31.2915 -1.64352 -6.563
upperback -1.05865 -0.413603 -0.679151
thorax 15.1979 -0.909644 2.56486
lowerneck 0.370474 -1.76298 -3.88051
upperneck -3.27874 -2.33805 7.85441
head -0.956527 -1.28136 3.22592
rclavicle -4.57205e-015 -2.98177e-014
rhumerus -37.3026 -14.9955 -80.3872
rradius 36.7837
rwrist -4.29189
rhand -8.70632 -51.4368
rfingers 7.12502
rthumb 17.2291 639.307
lclavicle -4.57205e-015 -2.98177e-014
lhumerus -31.7849 8.40358 78.2576
lradius 25.9817
lwrist -3.17438
lhand -20.647 -11.3562
lfingers 7.12502
lthumb 5.71518 18.5467
rfemur -21.8105 7.19727 18.7908
rtibia 5.60718
rfoot -17.4733 -7.5096
rtoes -27.2583
lfemur -22.1747 -8.4 -20.9116
ltibia 7.62209
lfoot -8.21171 2.18662
ltoes -32.9224
945
root 9.186 25.1257 -14.6096 -153.658 -2.70542 179.071
lowerback -31.3219 -1.63039 -6.41229
upperback -1.06853 -0.451873 -0.66066
thorax 15.2049 -0.916824 2.48773
lowerneck 0.643922 -1.60862 -3.72791
upperneck -3.69295 -2.12103 7.79593
head -1.15336 -1.18815 3.18711
rclavicle -7.95139e-016 -5.1684e-015
rhumerus -37.2111 -15.1832 -80.4282
rradius 36.3265
rwrist -4.13622
rhand -8.50041 -51.6172
rfingers 7.12502
rthumb 17.4273 639.144
lclavicle -7.95139e-016 -5.1684e-015
lhumerus -31.5598 8.5641 78.2702
lradius 26.1465
lwrist -3.2849
lhand -20.4574 -11.3836
lfingers 7.12502
lthumb 5.89826 18.5143
rfemur -21.7394 7.24603 18.9818
rtibia 5.59904
rfoot -17.4702 -7.6436
rtoes -27.2517
lfemur -22.1687 -8.27515 -20.801
ltibia 7.91802
lfoot -8.40499 2.16121
ltoes -34.7451
946
root 9.18673 25.1242 -14.6157 -153.634 -2.7361 179.001
lowerback -31.4949 -1.6727 -6.44056
upperback -1.01583 -0.478083 -0.674547
thorax 15.3458 -0.934103 2.47347
lowerneck 0.655343 -1.52968 -3.66975
upperneck -3.83698 -2.011 7.72621
head -1.20947 -1.13619 3.15405
rclavicle 1.19271e-015 -1.03368e-014
rhumerus -37.0821 -15.2223 -80.5008
rradius 36.0322
rwrist -4.1364
rhand -7.9746 -52.5707
rfingers 7.12502
rthumb 17.9333 638.236
lclavicle 1.19271e-015 -1.03368e-014
lhumerus -30.9765 8.814 78.3649
lradius 25.9531
lwrist -3.47331
lhand -20.4724 -11.4208
lfingers 7.12502
lthumb 5.88372 18.4775
rfemur -21.731 7.06839 18.9493
rtibia 5.5955
rfoot -17.5236 -7.58087
rtoes -27.4941
lfemur -22.1785 -8.27582 -20.9161
ltibia 8.05525
lfoot -8.46754 2.1561
ltoes -35.7066
947
root 9.18703 25.1236 -14.6207 -153.599 -2.78523 178.94
lowerback -31.5062 -1.66069 -6.43193
upperback -1.02483 -0.465927 -0.677732
thorax 15.3391 -0.928299 2.47012
lowerneck 0.430865 -1.53027 -3.82782
upperneck -3.67985 -2.01467 7.78026
head -1.11761 -1.12938 3.19638
rclavicle 1.68967e-015 -3.97569e-016
rhumerus -37.0787 -15.2973 -80.4526
rradius 35.9233
rwrist -4.04768
rhand -7.57149 -53.2157
rfingers 7.12502
rthumb 18.3211 637.627
lclavicle 1.68967e-015 -3.97569e-016
lhumerus -31.0883 8.21482 78.6537
lradius 26.4942
lwrist -2.97888
lhand -20.6539 -11.2762
lfingers 7.12502
lthumb 5.70852 18.6269
rfemur -21.7124 6.81452 18.9502
rtibia 5.5469
rfoot -17.5361 -7.45718
rtoes -27.7941
lfemur -22.1911 -8.34649 -20.9847
ltibia 8.05217
lfoot -8.46385 2.11932
ltoes -35.6488
948
root 9.18883 25.1228 -14.626 -153.55 -2.83544 178.863
lowerback -31.6507 -1.69168 -6.46469
upperback -0.966301 -0.47746 -0.670703
thorax 15.4734 -0.938769 2.48814
lowerneck 0.236644 -1.53554 -3.9011
upperneck -3.72615 -2.01832 7.73325
head -1.0976 -1.12682 3.19176
rclavicle -4.37326e-015 1.86858e-014
rhumerus -36.9606 -15.3426 -80.454
rradius 35.8361
rwrist -3.89658
rhand -7.51663 -53.2408
rfingers 7.12502
rthumb 18.3739 637.607
lclavicle -4.37326e-015 1.86858e-014
lhumerus -30.8643 8.1688 78.8472
lradius 26.7341
lwrist -3.01678
lhand -20.7541 -11.3636
lfingers 7.12502
lthumb 5.61176 18.5421
rfemur -21.6777 6.66718 18.9177
rtibia 5.45477
rfoot -17.5344 -7.42081
rtoes -28.2372
lfemur -22.1941 -8.40767 -21.0586
ltibia 7.98919
lfoot -8.42907 2.06326
ltoes -35.205
949
root 9.19101 25.1212 -14.6297 -153.527 -2.80284 178.752
lowerback -31.6355 -1.72005 -6.58239
upperback -1.08176 -0.5 -0.661215
thorax 15.33 -0.959259 2.55121
lowerneck 0.320339 -1.58339 -3.93539
upperneck -3.64029 -2.08385 7.65646
head -1.0809 -1.15525 3.17213
rclavicle 1.38155e-014 -1.59028e-014
rhumerus -37.1829 -15.2594 -80.3958
rradius 35.7316
rwrist -3.89857
rhand -7.58075 -53.0974
rfingers 7.12502
rthumb 18.3122 637.745
lclavicle 1.38155e-014 -1.59028e-014
lhumerus -31.1076 7.88546 79.0346
lradius 27.2099
lwrist -2.75066
lhand -20.7304 -11.2147
lfingers 7.12502
lthumb 5.63468 18.6904
rfemur -21.6453 6.63832 18.7954
rtibia 5.38011
rfoot -17.5415 -7.42446
rtoes -28.6872
lfemur -22.2096 -8.48299 -21.1779
ltibia 8.02196
lfoot -8.44743 2.10376
ltoes -34.9936
950
root 9.1938 25.1216 -14.6309 -153.544 -2.741 178.716
lowerback -31.6476 -1.68412 -6.56104
upperback -1.05071 -0.447318 -0.71256
thorax 15.3669 -0.933424 2.50527
lowerneck 0.298949 -1.50522 -3.97146
upperneck -3.78327 -1.97624 7.75321
head -1.12911 -1.10689 3.21367
rclavicle 1.59028e-014 2.38542e-015
rhumerus -37.1046 -15.4024 -80.4621
rradius 35.5766
rwrist -3.8991
rhand -7.47599 -53.046
rfingers 7.12502
rthumb 18.413 637.805
lclavicle 1.59028e-014 2.38542e-015
lhumerus -31.0836 7.20959 79.252
lradius 27.7238
lwrist -1.99806
lhand -20.7773 -10.8369
lfingers 7.12502
lthumb 5.58938 19.0694
rfemur -21.6241 6.69935 18.7389
rtibia 5.37466
rfoot -17.4892 -7.40981
rtoes -28.4715
lfemur -22.2883 -8.63434 -21.1642
ltibia 8.26233
lfoot -8.63128 2.18851
ltoes -33.6449
951
root 9.19638 25.1223 -14.6309 -153.514 -2.73668 178.711
lowerback -31.8076 -1.71813 -6.54552
upperback -0.926765 -0.467088 -0.691183
thorax 15.5876 -0.943815 2.51013
lowerneck 0.00458693 -1.41237 -4.07484
upperneck -3.72899 -1.85182 7.84842
head -1.06653 -1.04071 3.26031
rclavicle -1.59028e-015 -1.70955e-014
rhumerus -36.6551 -15.4877 -80.5405
rradius 35.1294
rwrist -3.83471
rhand -7.15 -53.1317
rfingers 7.12502
rthumb 18.7265 637.75
lclavicle -1.59028e-015 -1.70955e-014
lhumerus -30.7789 7.13577 79.3958
lradius 27.961
lwrist -1.69336
lhand -20.7554 -11.0366
lfingers 7.12502
lthumb 5.61048 18.8691
rfemur -21.6606 6.74971 18.7277
rtibia 5.37745
rfoot -17.4594 -7.41231
rtoes -27.9887
lfemur -22.3964 -8.70185 -21.1188
ltibia 8.43477
lfoot -8.75396 2.12746
ltoes -32.0959
952
root 9.19794 25.1222 -14.6326 -153.478 -2.73787 178.681
lowerback -31.8069 -1.75757 -6.58305
upperback -1.00217 -0.526946 -0.651429
thorax 15.5029 -0.975097 2.54797
lowerneck -0.0215231 -1.46407 -4.12032
upperneck -3.678 -1.92145 7.82607
head -1.04077 -1.07218 3.26034
rclavicle 9.83984e-015 -1.19271e-015
rhumerus -36.3766 -15.4979 -80.4658
rradius 34.3273
rwrist -3.51129
rhand -6.50922 -53.3535
rfingers 7.12502
rthumb 19.3428 637.589
lclavicle 9.83984e-015 -1.19271e-015
lhumerus -30.7978 7.32444 79.448
lradius 28.1247
lwrist -1.7132
lhand -20.6078 -11.4724
lfingers 7.12502
lthumb 5.75297 18.4295
rfemur -21.641 6.76832 18.6925
rtibia 5.2539
rfoot -17.4627 -7.4312
rtoes -28.0338
lfemur -22.4097 -8.53631 -21.2032
ltibia 8.36485
lfoot -8.62546 2.04141
ltoes -33.8406
953
root 9.20051 25.1228 -14.6362 -153.5 -2.64722 178.611
lowerback -31.8112 -1.77142 -6.66025
upperback -0.999635 -0.516824 -0.657118
thorax 15.506 -0.97659 2.58719
lowerneck -0.160233 -1.53053 -4.12155
upperneck -3.68133 -2.00956 7.81706
head -1.01151 -1.1144 3.25566
rclavicle -3.67752e-015 5.56597e-015
rhumerus -36.5819 -15.6525 -80.3788
rradius 34.573
rwrist -2.89448
rhand -5.40865 -54.2362
rfingers 7.12502
rthumb 20.4007 636.815
lclavicle -3.67752e-015 5.56597e-015
lhumerus -30.6629 7.44477 79.4997
lradius 28.2434
lwrist -1.72737
lhand -20.4978 -11.6291
lfingers 7.12502
lthumb 5.8592 18.2699
rfemur -21.5715 6.90066 18.5785
rtibia 5.17387
rfoot -17.4474 -7.48268
rtoes -28.0623
lfemur -22.3183 -8.42275 -21.3351
ltibia 8.23049
lfoot -8.50494 2.07122
ltoes -35.2817
954
root 9.20498 25.123 -14.638 -153.564 -2.49178 178.564
lowerback -31.713 -1.74585 -6.74139
upperback -1.04809 -0.468957 -0.663671
thorax 15.3997 -0.95969 2.64515
lowerneck -0.23922 -1.59146 -4.20891
upperneck -3.68187 -2.08949 7.82048
head -0.991733 -1.15147 3.27242
rclavicle 1.3418e-014 -7.55382e-015
rhumerus -36.7936 -15.7624 -80.3105
rradius 34.4983
rwrist -2.81214
rhand -5.48284 -54.3316
rfingers 7.12502
rthumb 20.3294 636.712
lclavicle 1.3418e-014 -7.55382e-015
lhumerus -30.7015 7.51186 79.5422
lradius 28.3846
lwrist -1.80383
lhand -20.5162 -11.5978
lfingers 7.12502
lthumb 5.84149 18.3016
rfemur -21.5427 7.08381 18.4809
rtibia 5.26562
rfoot -17.4988 -7.53743
rtoes -28.0778
lfemur -22.212 -8.5259 -21.3562
ltibia 8.21406
lfoot -8.60639 2.19088
ltoes -33.4328
955
root 9.20832 25.123 -14.6384 -153.622 -2.37911 178.602
lowerback -31.5764 -1.67456 -6.71314
upperback -1.12413 -0.408253 -0.661087
thorax 15.2438 -0.928295 2.66035
lowerneck -0.223233 -1.55261 -4.15748
upperneck -3.55277 -2.0421 7.86132
head -0.956459 -1.12728 3.275
rclavicle -6.85807e-015 -1.27222e-014
rhumerus -36.9677 -15.8125 -80.3171
rradius 34.2213
rwrist -3.26267
rhand -6.75365 -53.5776
rfingers 7.12502
rthumb 19.1077 637.341
lclavicle -6.85807e-015 -1.27222e-014
lhumerus -30.8043 7.40625 79.6304
lradius 28.5529
lwrist -1.77635
lhand -20.5658 -11.5367
lfingers 7.12502
lthumb 5.79353 18.3641
rfemur -21.521 7.15121 18.5207
rtibia 5.3331
rfoot -17.549 -7.51152
rtoes -28.2853
lfemur -22.1478 -8.61838 -21.2776
ltibia 8.26859
lfoot -8.76458 2.2917
ltoes -31.6953
956
root 9.21011 25.1228 -14.639 -153.619 -2.32906 178.625
lowerback -31.5281 -1.61324 -6.67366
upperback -1.19682 -0.357959 -0.675618
thorax 15.1317 -0.902761 2.64425
lowerneck -0.148198 -1.53566 -4.11923
upperneck -3.6367 -2.01813 7.84376
head -0.998606 -1.11859 3.26396
rclavicle -7.85199e-015 1.19271e-014
rhumerus -37.1079 -15.9773 -80.2965
rradius 33.9371
rwrist -3.34257
rhand -7.43692 -53.1664
rfingers 7.12502
rthumb 18.4506 637.689
lclavicle -7.85199e-015 1.19271e-014
lhumerus -30.7686 7.22825 79.7249
lradius 28.5261
lwrist -1.71458
lhand -20.5662 -11.7524
lfingers 7.12502
lthumb 5.79318 18.1484
rfemur -21.5669 7.06999 18.5684
rtibia 5.38103
rfoot -17.544 -7.44301
rtoes -28.3987
lfemur -22.1558 -8.55526 -21.2755
ltibia 8.23646
lfoot -8.7094 2.37834
ltoes -32.8251
957
root 9.21296 25.1211 -14.64 -153.615 -2.25978 178.548
lowerback -31.4905 -1.60701 -6.75977
upperback -1.25059 -0.329896 -0.705348
thorax 15.0472 -0.895938 2.66934
lowerneck 0.228218 -1.45216 -4.01425
upperneck -3.93429 -1.90151 7.76581
head -1.16963 -1.07209 3.22706
rclavicle 5.86415e-015 7.95139e-015
rhumerus -37.2305 -16.1213 -80.2558
rradius 33.7486
rwrist -3.1778
rhand -7.39694 -53.2508
rfingers 7.12502
rthumb 18.489 637.608
lclavicle 5.86415e-015 7.95139e-015
lhumerus -30.6616 7.01366 79.8318
lradius 28.392
lwrist -1.58117
lhand -20.6692 -12.0364
lfingers 7.12502
lthumb 5.69369 17.8671
rfemur -21.6097 7.01621 18.4871
rtibia 5.45076
rfoot -17.5587 -7.4389
rtoes -28.5127
lfemur -22.1534 -8.45087 -21.4104
ltibia 8.2095
lfoot -8.65656 2.41735
ltoes -33.6998
958
root 9.21568 25.1193 -14.6411 -153.602 -2.17701 178.448
lowerback -31.4625 -1.60319 -6.85228
upperback -1.23696 -0.288668 -0.724435
thorax 15.0457 -0.883024 2.71571
lowerneck 0.192082 -1.42335 -4.06931
upperneck -4.02532 -1.86003 7.75967
head -1.19491 -1.05169 3.2361
rclavicle 8.05078e-015 -2.70347e-014
rhumerus -37.2162 -16.1759 -80.238
rradius 33.6731
rwrist -3.17703
rhand -7.42997 -53.4086
rfingers 7.12502
rthumb 18.4572 637.447
lclavicle 8.05078e-015 -2.70347e-014
lhumerus -30.6513 6.58065 80.0471
lradius 28.5608
lwrist -1.24384
lhand -20.9295 -12.2684
lfingers 7.12502
lthumb 5.44243 17.6418
rfemur -21.6068 7.05754 18.3619
rtibia 5.45166
rfoot -17.5615 -7.47735
rtoes -28.7409
lfemur -22.1653 -8.40247 -21.554
ltibia 8.28539
lfoot -8.74746 2.4031
ltoes -33.3557
